TITLE "I Do!"
PERFORMER "The Indigo"
REM GENRE "Anime"
REM DATE "2003"
REM DISCID 19029203
FILE "I Do!.flac" WAVE
  TRACK 01 AUDIO
    TITLE "I Do!"
    ISRC JPPI00306530
    INDEX 01 00:00:00
  TRACK 02 AUDIO
    TITLE "presence"
    ISRC JPPI00306540
    INDEX 00 03:56:62
    INDEX 01 03:59:30
  TRACK 03 AUDIO
    TITLE "Little Wing"
    ISRC JPPI00306550
    INDEX 00 07:41:27
    INDEX 01 07:44:00
